<?xml version="1.0" standalone="no"?>
<!DOCTYPE svg PUBLIC "-//W3C//DTD SVG 20010904//EN"
 "http://www.w3.org/TR/2001/REC-SVG-20010904/DTD/svg10.dtd">
<svg version="1.0" xmlns="http://www.w3.org/2000/svg"
 width="192.000000pt" height="192.000000pt" viewBox="0 0 192.000000 192.000000"
 preserveAspectRatio="xMidYMid meet">
<metadata>
Created by potrace 1.14, written by Peter Selinger 2001-2017
</metadata>
<g transform="translate(0.000000,192.000000) scale(0.100000,-0.100000)"
fill="#000000" stroke="none">
<path d="M819 1736 c-48 -33 -71 -71 -73 -119 -1 -52 41 -92 87 -83 43 9 94
51 117 96 24 47 25 78 4 108 -22 31 -87 30 -135 -2z"/>
<path d="M30 1450 c-20 -12 -21 -133 -2 -152 7 -7 40 -15 73 -18 l60 -5 2
-393 c2 -454 -5 -422 102 -422 102 0 95 -32 97 420 l3 395 66 5 c87 7 99 18
99 91 0 91 6 89 -258 89 -126 0 -234 -5 -242 -10z"/>
<path d="M783 1453 c-10 -4 -13 -111 -13 -488 0 -553 -9 -505 95 -505 104 0
95 -47 95 498 0 359 -3 481 -12 490 -12 12 -139 16 -165 5z"/>
<path d="M1252 1448 c-9 -9 -12 -131 -12 -490 0 -547 -9 -502 98 -496 77 4 82
15 82 193 0 81 4 134 9 125 5 -8 16 -64 26 -125 24 -159 31 -182 58 -189 12
-3 46 -6 75 -6 65 0 87 19 96 86 35 269 40 279 44 89 2 -127 5 -152 19 -162
19 -14 140 -18 161 -5 10 7 12 113 10 498 l-3 489 -111 3 c-88 2 -115 -1 -127
-12 -8 -8 -20 -50 -26 -93 -7 -43 -17 -107 -22 -143 -6 -36 -16 -107 -24 -159
-14 -95 -35 -146 -35 -82 0 17 -4 51 -9 74 -5 23 -15 78 -21 122 -6 44 -18
110 -26 147 -8 37 -14 81 -14 97 0 20 -7 34 -19 41 -28 14 -214 13 -229 -2z"/>
</g>
</svg>
